# xmcd CD database file
#
# Track frame offsets:
#	150
#	12664
#	27245
#	43415
#	58642
#	77186
#	97680
#	120512
#	148858
#	161215
#	175888
#	195549
#	211384
#
# Disc length: 3048 seconds
#
# Revision: 15
# Processed by: cddbd v1.5.2PL0 Copyright (c) Steve Scherf et al.
# Submitted via: CDex 1.51
#
DISCID=b60be60d
DTITLE=Brad Paisley - Part II
DYEAR=2001
DGENRE=Country
TTITLE0=Two Feet Of Topsoil
TTITLE1=I'm Gonna Miss Her
TTITLE2=Part Two
TTITLE3=Wrapped Around
TTITLE4=Two People Fell In Love
TTITLE5=Come On Over Tonight
TTITLE6=You'll Never Leave Harlan Alive
TTITLE7=I Wish You'd Stay
TTITLE8=All You Really Need Is Love
TTITLE9=Munster Rag
TTITLE10=You Have That Effect On Me
TTITLE11=Too Country
TTITLE12=The Old Rugged Cross
EXTD=Part II YEAR: 2001
EXTT0=
EXTT1=
EXTT2=
EXTT3=
EXTT4=
EXTT5=
EXTT6=
EXTT7=
EXTT8=
EXTT9=
EXTT10=
EXTT11=
EXTT12=
PLAYORDER=
